<?xml version="1.0" encoding="utf-8"?>
<svg version="1.1" width="800" height="800" xmlns="http://www.w3.org/2000/svg">
  <g transform="scale(2,2)">
    <g id="background-c38d71f3"/>
    <g id="background-images-c38d71f3"/>
    <g id="graphpaper-c38d71f3">
      <g id="axis-c38d71f3">
        <g>
          <g>
            <path fill="none" stroke="rgb(0,0,0)" class="dcg-svg-tickmark" paint-order="fill stroke markers" d="" stroke-opacity="0.9" stroke-miterlimit="2" stroke-width="1.5" stroke-dasharray=""/>
          </g>
        </g>
      </g>
    </g>
    <g id="expressions-c38d71f3">
      <g id="sketch-c38d71f3">
        <title>Expression 34</title>
        <path fill="#000000" stroke="none" class="dcg-svg-region" paint-order="stroke fill markers" d=" M 121.73254453940893 121.28503202894291 L 141.87145279754915 156.16664434101025 L 182.14926931382954 156.16664434101025 L 202.28817757196975 121.28503202894291 L 182.14926931382954 86.40341971687576 L 141.87145279754915 86.40341971687576 L 121.73254453940893 121.28503202894291" fill-opacity="0.4"/>
      </g>
      <g id="sketch-c38d71f3">
        <title>Expression 35</title>
        <path fill="#000000" stroke="none" class="dcg-svg-region" paint-order="stroke fill markers" d=" M 141.87145279754915 225.92986896514478 L 182.14926931382954 225.92986896514478 L 202.28817757196975 191.0482566530775 L 182.14926931382954 156.16664434101025 L 141.87145279754915 156.16664434101025 L 121.73254453940893 191.0482566530775 L 141.87145279754915 225.92986896514478" fill-opacity="0.4"/>
      </g>
      <g id="sketch-c38d71f3">
        <title>Expression 37</title>
        <path fill="#000000" stroke="none" class="dcg-svg-region" paint-order="stroke fill markers" d=" M 182.14926931382954 295.69309358927933 L 202.28817757196975 330.5747059013466 L 242.56599408825016 330.5747059013466 L 262.7049023463904 295.69309358927933 L 242.56599408825016 260.81148127721207 L 202.28817757196975 260.81148127721207 L 182.14926931382954 295.69309358927933" fill-opacity="0.4"/>
      </g>
      <g id="sketch-c38d71f3">
        <title>Expression 38</title>
        <path fill="#000000" stroke="none" class="dcg-svg-region" paint-order="stroke fill markers" d=" M 202.28817757196975 260.81148127721207 L 242.56599408825016 260.81148127721207 L 262.7049023463904 225.92986896514478 L 242.56599408825016 191.0482566530775 L 202.28817757196975 191.0482566530775 L 182.14926931382954 225.92986896514478 L 202.28817757196975 260.81148127721207" fill-opacity="0.4"/>
      </g>
    </g>
    <g id="labels-c38d71f3"/>
  </g>
</svg>