<?xml version="1.0" encoding="utf-8"?>
<svg version="1.1" width="800" height="800" xmlns="http://www.w3.org/2000/svg">
  <g transform="scale(2,2)">
    <g id="background-2e071776"/>
    <g id="background-images-2e071776"/>
    <g id="graphpaper-2e071776">
      <g id="axis-2e071776">
        <g>
          <g>
            <path fill="none" stroke="rgb(0,0,0)" class="dcg-svg-tickmark" paint-order="fill stroke markers" d="" stroke-opacity="0.9" stroke-miterlimit="2" stroke-width="1.5" stroke-dasharray=""/>
          </g>
        </g>
      </g>
    </g>
    <g id="expressions-2e071776">
      <g id="sketch-2e071776">
        <title>Expression 2</title>
        <path fill="#000000" stroke="none" class="dcg-svg-region" paint-order="stroke fill markers" d=" M 143.04502581458178 179.05475908069468 L 134.7917425432166 164.7596531254319 L 118.28517600048626 164.7596531254319 L 110.03189272912108 179.05475908069468 L 118.28517600048626 193.34986503595744 L 134.7917425432166 193.34986503595744 L 143.04502581458178 179.05475908069468" fill-opacity="0.4"/>
      </g>
      <g id="sketch-2e071776">
        <title>Expression 4</title>
        <path fill="#000000" stroke="none" class="dcg-svg-region" paint-order="stroke fill markers" d=" M 167.80487562867734 164.7600724546902 L 159.55159235731216 150.46538582868573 L 143.04502581458178 150.46496649942742 L 134.7917425432166 164.7596531254319 L 143.04502581458178 179.05475908069468 L 159.55159235731216 179.05475908069468 L 167.80487562867734 164.7600724546902" fill-opacity="0.4"/>
      </g>
      <g id="sketch-2e071776">
        <title>Expression 6</title>
        <path fill="#000000" stroke="none" class="dcg-svg-region" paint-order="stroke fill markers" d=" M 167.80487562867734 193.34944570669916 L 159.55159235731216 179.05475908069468 L 143.04502581458178 179.05475908069468 L 134.7917425432166 193.34944570669916 L 143.04502581458178 207.64413233270363 L 159.55159235731216 207.64413233270363 L 167.80487562867734 193.34944570669916" fill-opacity="0.4"/>
      </g>
      <g id="sketch-2e071776">
        <title>Expression 8</title>
        <path fill="#000000" stroke="none" class="dcg-svg-region" paint-order="stroke fill markers" d=" M 192.56472544277287 179.05475908069468 L 184.3114421714077 164.7600724546902 L 167.80487562867734 164.7600724546902 L 159.55159235731216 179.05475908069468 L 167.80487562867734 193.34944570669916 L 184.3114421714077 193.34944570669916 L 192.56472544277287 179.05475908069468" fill-opacity="0.4"/>
      </g>
      <g id="sketch-2e071776">
        <title>Expression 10</title>
        <path fill="#000000" stroke="none" class="dcg-svg-region" paint-order="stroke fill markers" d=" M 192.56472544277287 207.64413233270363 L 184.3114421714077 193.34944570669916 L 167.80487562867734 193.34944570669916 L 159.55159235731216 207.64413233270363 L 167.80487562867734 221.93881895870814 L 184.3114421714077 221.93881895870814 L 192.56472544277287 207.64413233270363" fill-opacity="0.4"/>
      </g>
      <g id="sketch-2e071776">
        <title>Expression 12</title>
        <path fill="#000000" stroke="none" class="dcg-svg-region" paint-order="stroke fill markers" d=" M 217.32457525686843 164.7600724546902 L 209.07129198550322 150.46538582868573 L 192.56472544277287 150.6634646271985 L 184.3114421714077 164.7600724546902 L 192.56472544277287 179.05475908069468 L 209.07129198550322 179.05475908069468 L 217.32457525686843 164.7600724546902" fill-opacity="0.4"/>
      </g>
      <g id="sketch-2e071776">
        <title>Expression 14</title>
        <path fill="#000000" stroke="none" class="dcg-svg-region" paint-order="stroke fill markers" d=" M 217.32457525686843 193.34944570669916 L 209.07129198550322 179.05475908069468 L 192.56472544277287 179.05475908069468 L 184.3114421714077 193.34944570669916 L 192.56472544277287 207.64413233270363 L 209.07129198550322 207.64413233270363 L 217.32457525686843 193.34944570669916" fill-opacity="0.4"/>
      </g>
      <g id="sketch-2e071776">
        <title>Expression 16</title>
        <path fill="#000000" stroke="none" class="dcg-svg-region" paint-order="stroke fill markers" d=" M 217.32457525686843 221.93881895870814 L 209.07129198550322 207.64413233270363 L 192.56472544277287 207.64413233270363 L 184.3114421714077 221.93881895870814 L 192.56472544277287 236.23350558471265 L 209.07129198550322 236.23350558471265 L 217.32457525686843 221.93881895870814" fill-opacity="0.4"/>
      </g>
      <g id="sketch-2e071776">
        <title>Expression 18</title>
        <path fill="#000000" stroke="none" class="dcg-svg-region" paint-order="stroke fill markers" d=" M 242.08442507096396 179.05475908069468 L 233.83114179959878 164.7600724546902 L 217.32457525686843 164.7600724546902 L 209.07129198550322 179.05475908069468 L 217.32457525686843 193.34944570669916 L 233.83114179959878 193.34944570669916 L 242.08442507096396 179.05475908069468" fill-opacity="0.4"/>
      </g>
      <g id="sketch-2e071776">
        <title>Expression 20</title>
        <path fill="#000000" stroke="none" class="dcg-svg-region" paint-order="stroke fill markers" d=" M 242.08442507096396 207.64413233270363 L 233.83114179959878 193.34944570669916 L 217.32457525686843 193.34944570669916 L 209.07129198550322 207.64413233270363 L 217.32457525686843 221.93881895870814 L 233.83114179959878 221.93881895870814 L 242.08442507096396 207.64413233270363" fill-opacity="0.4"/>
      </g>
      <g id="sketch-2e071776">
        <title>Expression 22</title>
        <path fill="#000000" stroke="none" class="dcg-svg-region" paint-order="stroke fill markers" d=" M 242.08442507096396 236.23350558471265 L 233.83114179959878 221.93881895870814 L 217.32457525686843 221.93881895870814 L 209.07129198550322 236.23350558471265 L 217.32457525686843 250.52819221071712 L 233.83114179959878 250.52819221071712 L 242.08442507096396 236.23350558471265" fill-opacity="0.4"/>
      </g>
      <g id="sketch-2e071776">
        <title>Expression 24</title>
        <path fill="#000000" stroke="none" class="dcg-svg-region" paint-order="stroke fill markers" d=" M 266.84427488505946 164.7600724546902 L 258.5909916136943 150.46538582868573 L 242.08442507096396 150.46538582868573 L 233.83114179959878 164.7600724546902 L 242.08442507096396 179.05475908069468 L 258.5909916136943 179.05475908069468 L 266.84427488505946 164.7600724546902" fill-opacity="0.4"/>
      </g>
      <g id="sketch-2e071776">
        <title>Expression 26</title>
        <path fill="#000000" stroke="none" class="dcg-svg-region" paint-order="stroke fill markers" d=" M 266.84427488505946 193.34944570669916 L 258.5909916136943 179.05475908069468 L 242.08442507096396 179.05475908069468 L 233.83114179959878 193.34944570669916 L 242.08442507096396 207.64413233270363 L 258.5909916136943 207.64413233270363 L 266.84427488505946 193.34944570669916" fill-opacity="0.4"/>
      </g>
      <g id="sketch-2e071776">
        <title>Expression 28</title>
        <path fill="#000000" stroke="none" class="dcg-svg-region" paint-order="stroke fill markers" d=" M 266.84427488505946 221.93881895870814 L 258.5909916136943 207.64413233270363 L 242.08442507096396 207.64413233270363 L 233.83114179959878 221.93881895870814 L 242.08442507096396 236.23350558471265 L 258.5909916136943 236.23350558471265 L 266.84427488505946 221.93881895870814" fill-opacity="0.4"/>
      </g>
    </g>
    <g id="labels-2e071776"/>
  </g>
</svg>