<?xml version="1.0" encoding="utf-8"?>
<svg version="1.1" width="800" height="800" xmlns="http://www.w3.org/2000/svg">
  <g transform="scale(2,2)">
    <g id="background-22a411a3"/>
    <g id="background-images-22a411a3"/>
    <g id="graphpaper-22a411a3">
      <g id="axis-22a411a3">
        <g>
          <g>
            <path fill="none" stroke="rgb(0,0,0)" class="dcg-svg-tickmark" paint-order="fill stroke markers" d="" stroke-opacity="0.9" stroke-miterlimit="2" stroke-width="1.5" stroke-dasharray=""/>
          </g>
        </g>
      </g>
    </g>
    <g id="expressions-22a411a3">
      <g id="sketch-22a411a3">
        <title>Expression 29</title>
        <path fill="#000000" stroke="none" class="dcg-svg-region" paint-order="stroke fill markers" d=" M 153.35409040710329 285.7399162452439 L 134.39982381120657 252.91016348094516 L 96.49129061941318 252.91016348094516 L 77.53702402351648 285.7399162452439 L 96.49129061941318 318.5696690095425 L 134.39982381120657 318.5696690095425 L 153.35409040710329 285.7399162452439" fill-opacity="0.4"/>
      </g>
      <g id="sketch-22a411a3">
        <title>Expression 30</title>
        <path fill="#000000" stroke="none" class="dcg-svg-region" paint-order="stroke fill markers" d=" M 153.35409040710329 285.7399162452439 L 191.26262359889665 285.7399162452439 L 210.21689019479336 252.91016348094516 L 191.26262359889665 220.08041071664653 L 153.35409040710329 220.08041071664653 L 134.39982381120657 252.91016348094516 L 153.35409040710329 285.7399162452439" fill-opacity="0.4"/>
      </g>
      <g id="sketch-22a411a3">
        <title>Expression 31</title>
        <path fill="#000000" stroke="none" class="dcg-svg-region" paint-order="stroke fill markers" d=" M 96.49129061941318 252.91016348094516 L 134.39982381120657 252.91016348094516 L 153.35409040710329 220.08041071664653 L 134.39982381120657 187.25065795234786 L 96.49129061941318 187.25065795234786 L 77.53702402351648 220.08041071664653 L 96.49129061941318 252.91016348094516" fill-opacity="0.4"/>
      </g>
      <g id="sketch-22a411a3">
        <title>Expression 35</title>
        <path fill="#000000" stroke="none" class="dcg-svg-region" paint-order="stroke fill markers" d=" M 153.35409040710329 220.08041071664653 L 191.26262359889665 220.08041071664653 L 210.21689019479336 187.25065795234786 L 191.26262359889665 154.42090518804915 L 153.35409040710329 154.42090518804915 L 134.39982381120657 187.25065795234786 L 153.35409040710329 220.08041071664653" fill-opacity="0.4"/>
      </g>
      <g id="sketch-22a411a3">
        <title>Expression 38</title>
        <path fill="#000000" stroke="none" class="dcg-svg-region" paint-order="stroke fill markers" d=" M 210.21689019479336 252.91016348094516 L 248.12542338658673 252.91016348094516 L 267.07968998248344 220.08041071664653 L 248.12542338658673 187.25065795234786 L 210.21689019479336 187.25065795234786 L 191.26262359889665 220.08041071664653 L 210.21689019479336 252.91016348094516" fill-opacity="0.4"/>
      </g>
      <g id="sketch-22a411a3">
        <title>Expression 39</title>
        <path fill="#000000" stroke="none" class="dcg-svg-region" paint-order="stroke fill markers" d=" M 210.21689019479336 187.25065795234786 L 248.12542338658673 187.25065795234786 L 267.07968998248344 154.42090518804915 L 248.12542338658673 121.59115242375049 L 210.21689019479336 121.59115242375049 L 191.26262359889665 154.42090518804915 L 210.21689019479336 187.25065795234786" fill-opacity="0.4"/>
      </g>
      <g id="sketch-22a411a3">
        <title>Expression 40</title>
        <path fill="#000000" stroke="none" class="dcg-svg-region" paint-order="stroke fill markers" d=" M 267.07968998248344 220.08041071664653 L 304.9882231742768 220.08041071664653 L 323.9424897701735 187.25065795234786 L 304.9882231742768 154.42090518804915 L 267.07968998248344 154.42090518804915 L 248.12542338658673 187.25065795234786 L 267.07968998248344 220.08041071664653" fill-opacity="0.4"/>
      </g>
      <g id="sketch-22a411a3">
        <title>Expression 55</title>
        <path fill="#000000" stroke="none" paint-order="stroke fill markers" d="" fill-opacity="0.4"/>
      </g>
    </g>
    <g id="labels-22a411a3"/>
  </g>
</svg>