<?xml version="1.0" encoding="utf-8"?>
<svg version="1.1" width="800" height="800" xmlns="http://www.w3.org/2000/svg">
  <g transform="scale(2,2)">
    <g id="background-7feac361"/>
    <g id="background-images-7feac361"/>
    <g id="graphpaper-7feac361">
      <g id="axis-7feac361">
        <g>
          <g>
            <path fill="none" stroke="rgb(0,0,0)" class="dcg-svg-tickmark" paint-order="fill stroke markers" d="" stroke-opacity="0.9" stroke-miterlimit="2" stroke-width="1.5" stroke-dasharray=""/>
          </g>
        </g>
      </g>
    </g>
    <g id="expressions-7feac361">
      <g id="sketch-7feac361">
        <title>Expression 44</title>
        <path fill="#000000" stroke="none" class="dcg-svg-region" paint-order="stroke fill markers" d=" M 66.62815913576571 84.06142073520789 L 88.02574916003975 121.12313381677944 L 130.8209292085878 121.12313381677944 L 152.21851923286184 84.06142073520789 L 130.8209292085878 46.999707653636335 L 88.02574916003975 46.999707653636335 L 66.62815913576571 84.06142073520789" fill-opacity="0.4"/>
      </g>
      <g id="sketch-7feac361">
        <title>Expression 45</title>
        <path fill="#000000" stroke="none" class="dcg-svg-region" paint-order="stroke fill markers" d=" M 88.02574916003975 195.24655997992267 L 130.8209292085878 195.24655997992267 L 152.21851923286184 158.18484689835105 L 130.8209292085878 121.12313381677944 L 88.02574916003975 121.12313381677944 L 66.62815913576571 158.18484689835105 L 88.02574916003975 195.24655997992267" fill-opacity="0.4"/>
      </g>
      <g id="sketch-7feac361">
        <title>Expression 46</title>
        <path fill="#000000" stroke="none" class="dcg-svg-region" paint-order="stroke fill markers" d=" M 130.8209292085878 121.12313381677944 L 152.21851923286184 158.18484689835105 L 195.01369928140988 158.18484689835105 L 216.4112893056839 121.12313381677944 L 195.01369928140988 84.06142073520789 L 152.21851923286184 84.06142073520789 L 130.8209292085878 121.12313381677944" fill-opacity="0.4"/>
      </g>
      <g id="sketch-7feac361">
        <title>Expression 47</title>
        <path fill="#000000" stroke="none" class="dcg-svg-region" paint-order="stroke fill markers" d=" M 130.8209292085878 195.24655997992267 L 152.21851923286184 158.18484689835105 L 195.01369928140988 158.18484689835105 L 216.4112893056839 195.24655997992267 L 195.01369928140988 232.30827306149422 L 152.21851923286184 232.30827306149422 L 130.8209292085878 195.24655997992267" fill-opacity="0.4"/>
      </g>
    </g>
    <g id="labels-7feac361"/>
  </g>
</svg>