<?xml version="1.0" encoding="utf-8"?>
<svg version="1.1" width="800" height="800" xmlns="http://www.w3.org/2000/svg">
  <g transform="scale(2,2)">
    <g id="background-b368d301"/>
    <g id="background-images-b368d301"/>
    <g id="graphpaper-b368d301">
      <g id="axis-b368d301">
        <g>
          <g>
            <path fill="none" stroke="rgb(0,0,0)" class="dcg-svg-tickmark" paint-order="fill stroke markers" d="" stroke-opacity="0.9" stroke-miterlimit="2" stroke-width="1.5" stroke-dasharray=""/>
          </g>
        </g>
      </g>
    </g>
    <g id="expressions-b368d301">
      <g id="sketch-b368d301">
        <title>Expression 34</title>
        <path fill="#000000" stroke="none" class="dcg-svg-region" paint-order="stroke fill markers" d=" M 51.82522967467025 179.1613701198922 L 65.58167048481474 202.98822453437646 L 93.09455210510372 202.98822453437646 L 106.8509929152482 179.1613701198922 L 93.09455210510372 155.33451570540802 L 65.58167048481474 155.33451570540802 L 51.82522967467025 179.1613701198922" fill-opacity="0.9"/>
      </g>
      <g id="sketch-b368d301">
        <title>Expression 35</title>
        <path fill="#000000" stroke="none" class="dcg-svg-region" paint-order="stroke fill markers" d=" M 65.58167048481474 250.64193336334486 L 93.09455210510372 250.64193336334486 L 106.8509929152482 226.81507894886067 L 93.09455210510372 202.98822453437646 L 65.58167048481474 202.98822453437646 L 51.82522967467025 226.81507894886067 L 65.58167048481474 250.64193336334486" fill-opacity="0.9"/>
      </g>
      <g id="sketch-b368d301">
        <title>Expression 39</title>
        <path fill="#000000" stroke="none" class="dcg-svg-region" paint-order="stroke fill markers" d=" M 106.8509929152482 226.81507894886067 L 134.36387453553718 226.81507894886067 L 148.12031534568166 202.98822453437646 L 134.36387453553718 179.1613701198922 L 106.8509929152482 179.1613701198922 L 93.09455210510372 202.98822453437646 L 106.8509929152482 226.81507894886067" fill-opacity="0.9"/>
      </g>
      <g id="sketch-b368d301">
        <title>Expression 40</title>
        <path fill="#000000" stroke="none" class="dcg-svg-region" paint-order="stroke fill markers" d=" M 148.12031534568166 250.64193336334486 L 175.63319696597063 250.64193336334486 L 189.3896377761151 226.81507894886067 L 175.63319696597063 202.98822453437646 L 148.12031534568166 202.98822453437646 L 134.36387453553718 226.81507894886067 L 148.12031534568166 250.64193336334486" fill-opacity="0.9"/>
      </g>
      <g id="sketch-b368d301">
        <title>Expression 41</title>
        <path fill="#000000" stroke="none" class="dcg-svg-region" paint-order="stroke fill markers" d=" M 148.12031534568166 202.98822453437646 L 175.63319696597063 202.98822453437646 L 189.3896377761151 179.1613701198922 L 175.63319696597063 155.33451570540802 L 148.12031534568166 155.33451570540802 L 134.36387453553718 179.1613701198922 L 148.12031534568166 202.98822453437646" fill-opacity="0.9"/>
      </g>
      <g id="sketch-b368d301">
        <title>Expression 42</title>
        <path fill="#000000" stroke="none" class="dcg-svg-region" paint-order="stroke fill markers" d=" M 93.09455210510372 155.33451570540802 L 106.8509929152482 179.1613701198922 L 134.36387453553718 179.1613701198922 L 148.12031534568166 155.33451570540802 L 134.36387453553718 131.5076612909238 L 106.8509929152482 131.5076612909238 L 93.09455210510372 155.33451570540802" fill-opacity="0.9"/>
      </g>
      <g id="sketch-b368d301">
        <title>Expression 45</title>
        <path fill="#000000" stroke="none" class="dcg-svg-region" paint-order="stroke fill markers" d=" M 189.3896377761151 226.81507894886067 L 216.90251939640407 226.81507894886067 L 230.65896020654856 202.98822453437646 L 216.90251939640407 179.1613701198922 L 189.3896377761151 179.1613701198922 L 175.63319696597063 202.98822453437646 L 189.3896377761151 226.81507894886067" fill-opacity="0.9"/>
      </g>
      <g id="sketch-b368d301">
        <title>Expression 46</title>
        <path fill="#000000" stroke="none" class="dcg-svg-region" paint-order="stroke fill markers" d=" M 216.90251939640407 179.1613701198922 L 230.65896020654856 202.98822453437646 L 258.1718418268375 202.98822453437646 L 271.92828263698203 179.1613701198922 L 258.1718418268375 155.33451570540802 L 230.65896020654856 155.33451570540802 L 216.90251939640407 179.1613701198922" fill-opacity="0.9"/>
      </g>
      <g id="sketch-b368d301">
        <title>Expression 47</title>
        <path fill="#000000" stroke="none" class="dcg-svg-region" paint-order="stroke fill markers" d=" M 216.90251939640407 226.81507894886067 L 230.65896020654856 202.98822453437646 L 258.1718418268375 202.98822453437646 L 271.92828263698203 226.81507894886067 L 258.1718418268375 250.64193336334486 L 230.65896020654856 250.64193336334486 L 216.90251939640407 226.81507894886067" fill-opacity="0.9"/>
      </g>
    </g>
    <g id="labels-b368d301"/>
  </g>
</svg>