<?xml version="1.0" encoding="utf-8"?>
<svg version="1.1" width="800" height="800" xmlns="http://www.w3.org/2000/svg">
  <g transform="scale(2,2)">
    <g id="background-ae47b423"/>
    <g id="background-images-ae47b423"/>
    <g id="graphpaper-ae47b423">
      <g id="axis-ae47b423">
        <g>
          <g>
            <path fill="none" stroke="rgb(0,0,0)" class="dcg-svg-tickmark" paint-order="fill stroke markers" d="" stroke-opacity="0.9" stroke-miterlimit="2" stroke-width="1.5" stroke-dasharray=""/>
          </g>
        </g>
      </g>
    </g>
    <g id="expressions-ae47b423">
      <g id="sketch-ae47b423">
        <title>Expression 33</title>
        <path fill="#000000" stroke="none" class="dcg-svg-region" paint-order="stroke fill markers" d=" M 131.8348449102258 158.6165750047192 L 163.43943517148884 158.6165750047192 L 179.24173030212037 131.24619696226716 L 163.43943517148884 103.87581891981512 L 131.8348449102258 103.87581891981512 L 116.03254977959428 131.24619696226716 L 131.8348449102258 158.6165750047192" fill-opacity="0.4"/>
      </g>
      <g id="sketch-ae47b423">
        <title>Expression 34</title>
        <path fill="#000000" stroke="none" class="dcg-svg-region" paint-order="stroke fill markers" d=" M 163.43943517148884 158.6165750047192 L 179.24173030212037 185.9869530471713 L 210.84632056338341 185.9869530471713 L 226.64861569401492 158.6165750047192 L 210.84632056338341 131.24619696226716 L 179.24173030212037 131.24619696226716 L 163.43943517148884 158.6165750047192" fill-opacity="0.4"/>
      </g>
      <g id="sketch-ae47b423">
        <title>Expression 35</title>
        <path fill="#000000" stroke="none" class="dcg-svg-region" paint-order="stroke fill markers" d=" M 179.24173030212037 240.72770913207543 L 210.84632056338341 240.72770913207543 L 226.64861569401492 213.3573310896234 L 210.84632056338341 185.9869530471713 L 179.24173030212037 185.9869530471713 L 163.43943517148884 213.3573310896234 L 179.24173030212037 240.72770913207543" fill-opacity="0.4"/>
      </g>
      <g id="sketch-ae47b423">
        <title>Expression 39</title>
        <path fill="#000000" stroke="none" class="dcg-svg-region" paint-order="stroke fill markers" d=" M 226.64861569401492 213.3573310896234 L 258.25320595527796 213.3573310896234 L 274.0555010859095 185.9869530471713 L 258.25320595527796 158.6165750047192 L 226.64861569401492 158.6165750047192 L 210.84632056338341 185.9869530471713 L 226.64861569401492 213.3573310896234" fill-opacity="0.4"/>
      </g>
      <g id="sketch-ae47b423">
        <title>Expression 40</title>
        <path fill="#000000" stroke="none" class="dcg-svg-region" paint-order="stroke fill markers" d=" M 274.0555010859095 240.72770913207543 L 305.66009134717257 240.72770913207543 L 321.4623864778041 213.3573310896234 L 305.66009134717257 185.9869530471713 L 274.0555010859095 185.9869530471713 L 258.25320595527796 213.3573310896234 L 274.0555010859095 240.72770913207543" fill-opacity="0.4"/>
      </g>
    </g>
    <g id="labels-ae47b423"/>
  </g>
</svg>