<?xml version="1.0" encoding="utf-8"?>
<svg version="1.1" width="800" height="800" xmlns="http://www.w3.org/2000/svg">
  <g transform="scale(2,2)">
    <g id="background-1b99d94f"/>
    <g id="background-images-1b99d94f"/>
    <g id="graphpaper-1b99d94f">
      <g id="axis-1b99d94f">
        <g>
          <g>
            <path fill="none" stroke="rgb(0,0,0)" class="dcg-svg-tickmark" paint-order="fill stroke markers" d="" stroke-opacity="0.9" stroke-miterlimit="2" stroke-width="1.5" stroke-dasharray=""/>
          </g>
        </g>
      </g>
    </g>
    <g id="expressions-1b99d94f">
      <g id="sketch-1b99d94f">
        <title>Expression 29</title>
        <path fill="#000000" stroke="none" class="dcg-svg-region" paint-order="stroke fill markers" d=" M 111.66479081285502 229.5686912007371 L 102.6655989140984 213.9816336050284 L 84.66721511658515 213.9816336050284 L 75.66802321782853 229.5686912007371 L 84.66721511658515 245.1557487964458 L 102.6655989140984 245.1557487964458 L 111.66479081285502 229.5686912007371" fill-opacity="0.4"/>
      </g>
      <g id="sketch-1b99d94f">
        <title>Expression 30</title>
        <path fill="#000000" stroke="none" class="dcg-svg-region" paint-order="stroke fill markers" d=" M 111.66479081285502 229.5686912007371 L 129.66317461036826 229.5686912007371 L 138.66236650912487 213.9816336050284 L 129.66317461036826 198.39457600931968 L 111.66479081285502 198.39457600931968 L 102.6655989140984 213.9816336050284 L 111.66479081285502 229.5686912007371" fill-opacity="0.4"/>
      </g>
      <g id="sketch-1b99d94f">
        <title>Expression 31</title>
        <path fill="#000000" stroke="none" class="dcg-svg-region" paint-order="stroke fill markers" d=" M 84.66721511658515 213.9816336050284 L 102.6655989140984 213.9816336050284 L 111.66479081285502 198.39457600931968 L 102.6655989140984 182.807518413611 L 84.66721511658515 182.807518413611 L 75.66802321782853 198.39457600931968 L 84.66721511658515 213.9816336050284" fill-opacity="0.4"/>
      </g>
      <g id="sketch-1b99d94f">
        <title>Expression 35</title>
        <path fill="#000000" stroke="none" class="dcg-svg-region" paint-order="stroke fill markers" d=" M 111.66479081285502 198.39457600931968 L 129.66317461036826 198.39457600931968 L 138.66236650912487 182.807518413611 L 129.66317461036826 167.2204608179023 L 111.66479081285502 167.2204608179023 L 102.6655989140984 182.807518413611 L 111.66479081285502 198.39457600931968" fill-opacity="0.4"/>
      </g>
      <g id="sketch-1b99d94f">
        <title>Expression 37</title>
        <path fill="#000000" stroke="none" class="dcg-svg-region" paint-order="stroke fill markers" d=" M 129.66317461036826 229.5686912007371 L 138.66236650912487 245.1557487964458 L 156.6607503066381 245.1557487964458 L 165.65994220539474 229.5686912007371 L 156.6607503066381 213.9816336050284 L 138.66236650912487 213.9816336050284 L 129.66317461036826 229.5686912007371" fill-opacity="0.4"/>
      </g>
      <g id="sketch-1b99d94f">
        <title>Expression 38</title>
        <path fill="#000000" stroke="none" class="dcg-svg-region" paint-order="stroke fill markers" d=" M 138.66236650912487 213.9816336050284 L 156.6607503066381 213.9816336050284 L 165.65994220539474 198.39457600931968 L 156.6607503066381 182.807518413611 L 138.66236650912487 182.807518413611 L 129.66317461036826 198.39457600931968 L 138.66236650912487 213.9816336050284" fill-opacity="0.4"/>
      </g>
      <g id="sketch-1b99d94f">
        <title>Expression 39</title>
        <path fill="#000000" stroke="none" class="dcg-svg-region" paint-order="stroke fill markers" d=" M 138.66236650912487 182.807518413611 L 156.6607503066381 182.807518413611 L 165.65994220539474 167.2204608179023 L 156.6607503066381 151.63340322219358 L 138.66236650912487 151.63340322219358 L 129.66317461036826 167.2204608179023 L 138.66236650912487 182.807518413611" fill-opacity="0.4"/>
      </g>
      <g id="sketch-1b99d94f">
        <title>Expression 40</title>
        <path fill="#000000" stroke="none" class="dcg-svg-region" paint-order="stroke fill markers" d=" M 165.65994220539474 198.39457600931968 L 183.65832600290798 198.39457600931968 L 192.6575179016646 182.807518413611 L 183.65832600290798 167.2204608179023 L 165.65994220539474 167.2204608179023 L 156.6607503066381 182.807518413611 L 165.65994220539474 198.39457600931968" fill-opacity="0.4"/>
      </g>
      <g id="sketch-1b99d94f">
        <title>Expression 41</title>
        <path fill="#000000" stroke="none" class="dcg-svg-region" paint-order="stroke fill markers" d=" M 165.65994220539474 167.2204608179023 L 183.65832600290798 167.2204608179023 L 192.6575179016646 151.63340322219358 L 183.65832600290798 136.04634562648494 L 165.65994220539474 136.04634562648494 L 156.6607503066381 151.63340322219358 L 165.65994220539474 167.2204608179023" fill-opacity="0.4"/>
      </g>
      <g id="sketch-1b99d94f">
        <title>Expression 42</title>
        <path fill="#000000" stroke="none" class="dcg-svg-region" paint-order="stroke fill markers" d=" M 129.66317461036826 136.04634562648494 L 138.66236650912487 151.63340322219358 L 156.6607503066381 151.63340322219358 L 165.65994220539474 136.04634562648494 L 156.6607503066381 120.45928803077618 L 138.66236650912487 120.45928803077618 L 129.66317461036826 136.04634562648494" fill-opacity="0.4"/>
      </g>
      <g id="sketch-1b99d94f">
        <title>Expression 43</title>
        <path fill="#000000" stroke="none" class="dcg-svg-region" paint-order="stroke fill markers" d=" M 156.6607503066381 213.9816336050284 L 165.65994220539474 229.5686912007371 L 183.65832600290798 229.5686912007371 L 192.6575179016646 213.9816336050284 L 183.65832600290798 198.39457600931968 L 165.65994220539474 198.39457600931968 L 156.6607503066381 213.9816336050284" fill-opacity="0.4"/>
      </g>
    </g>
    <g id="labels-1b99d94f"/>
  </g>
</svg>