<?xml version="1.0" encoding="utf-8"?>
<svg version="1.1" width="800" height="800" xmlns="http://www.w3.org/2000/svg">
  <g transform="scale(2,2)">
    <g id="background-f96629e4"/>
    <g id="background-images-f96629e4"/>
    <g id="graphpaper-f96629e4">
      <g id="axis-f96629e4">
        <g>
          <g>
            <path fill="none" stroke="rgb(0,0,0)" class="dcg-svg-tickmark" paint-order="fill stroke markers" d="" stroke-opacity="0.9" stroke-miterlimit="2" stroke-width="1.5" stroke-dasharray=""/>
          </g>
        </g>
      </g>
    </g>
    <g id="expressions-f96629e4">
      <g id="sketch-f96629e4">
        <title>Expression 2</title>
        <path fill="#000000" stroke="none" class="dcg-svg-region" paint-order="stroke fill markers" d=" M 141.6973626112657 137.08061684201408 L 125.6188793710585 109.23186696133058 L 93.46191289064411 109.23186696133058 L 77.38342965043692 137.08061684201408 L 93.46191289064411 164.9293667226976 L 125.6188793710585 164.9293667226976 L 141.6973626112657 137.08061684201408" fill-opacity="0.4"/>
      </g>
      <g id="sketch-f96629e4">
        <title>Expression 6</title>
        <path fill="#000000" stroke="none" class="dcg-svg-region" paint-order="stroke fill markers" d=" M 189.93281233188728 164.92854981405296 L 173.85432909168009 137.08061684201408 L 141.6973626112657 137.08061684201408 L 125.6188793710585 164.92854981405296 L 141.6973626112657 192.7764827860918 L 173.85432909168009 192.7764827860918 L 189.93281233188728 164.92854981405296" fill-opacity="0.4"/>
      </g>
      <g id="sketch-f96629e4">
        <title>Expression 10</title>
        <path fill="#000000" stroke="none" class="dcg-svg-region" paint-order="stroke fill markers" d=" M 238.16826205250888 192.7764827860918 L 222.0897788123017 164.92854981405296 L 189.93281233188728 164.92854981405296 L 173.85432909168009 192.7764827860918 L 189.93281233188728 220.62441575813068 L 222.0897788123017 220.62441575813068 L 238.16826205250888 192.7764827860918" fill-opacity="0.4"/>
      </g>
      <g id="sketch-f96629e4">
        <title>Expression 16</title>
        <path fill="#000000" stroke="none" class="dcg-svg-region" paint-order="stroke fill markers" d=" M 286.40371177313045 220.62441575813068 L 270.3252285329233 192.7764827860918 L 238.16826205250888 192.7764827860918 L 222.0897788123017 220.62441575813068 L 238.16826205250888 248.47234873016953 L 270.3252285329233 248.47234873016953 L 286.40371177313045 220.62441575813068" fill-opacity="0.4"/>
      </g>
      <g id="sketch-f96629e4">
        <title>Expression 22</title>
        <path fill="#000000" stroke="none" class="dcg-svg-region" paint-order="stroke fill markers" d=" M 334.63916149375206 248.47234873016953 L 318.56067825354484 220.62441575813068 L 286.40371177313045 220.62441575813068 L 270.3252285329233 248.47234873016953 L 286.40371177313045 276.3202817022084 L 318.56067825354484 276.3202817022084 L 334.63916149375206 248.47234873016953" fill-opacity="0.4"/>
      </g>
    </g>
    <g id="labels-f96629e4"/>
  </g>
</svg>