<?xml version="1.0" encoding="utf-8"?>
<svg version="1.1" width="800" height="800" xmlns="http://www.w3.org/2000/svg">
  <g transform="scale(2,2)">
    <g id="background-73ad9014"/>
    <g id="background-images-73ad9014"/>
    <g id="graphpaper-73ad9014">
      <g id="axis-73ad9014">
        <g>
          <g>
            <path fill="none" stroke="rgb(0,0,0)" class="dcg-svg-tickmark" paint-order="fill stroke markers" d="" stroke-opacity="0.9" stroke-miterlimit="2" stroke-width="1.5" stroke-dasharray=""/>
          </g>
        </g>
      </g>
    </g>
    <g id="expressions-73ad9014">
      <g id="sketch-73ad9014">
        <title>Expression 40</title>
        <path fill="#000000" stroke="none" class="dcg-svg-region" paint-order="stroke fill markers" d=" M 126.5300745229023 213.6360738913697 L 169.32525457145036 213.6360738913697 L 190.7228445957244 176.5743608097981 L 169.32525457145036 139.5126477282265 L 126.5300745229023 139.5126477282265 L 105.13248449862827 176.5743608097981 L 126.5300745229023 213.6360738913697" fill-opacity="0.4"/>
      </g>
      <g id="sketch-73ad9014">
        <title>Expression 41</title>
        <path fill="#000000" stroke="none" class="dcg-svg-region" paint-order="stroke fill markers" d=" M 126.5300745229023 139.5126477282265 L 169.32525457145036 139.5126477282265 L 190.7228445957244 102.4509346466549 L 169.32525457145036 65.3892215650834 L 126.5300745229023 65.3892215650834 L 105.13248449862827 102.4509346466549 L 126.5300745229023 139.5126477282265" fill-opacity="0.4"/>
      </g>
      <g id="sketch-73ad9014">
        <title>Expression 44</title>
        <path fill="#000000" stroke="none" class="dcg-svg-region" paint-order="stroke fill markers" d=" M 169.32525457145036 65.3892215650834 L 190.7228445957244 102.4509346466549 L 233.51802464427246 102.4509346466549 L 254.91561466854648 65.3892215650834 L 233.51802464427246 28.327508483511792 L 190.7228445957244 28.327508483511792 L 169.32525457145036 65.3892215650834" fill-opacity="0.4"/>
      </g>
      <g id="sketch-73ad9014">
        <title>Expression 45</title>
        <path fill="#000000" stroke="none" class="dcg-svg-region" paint-order="stroke fill markers" d=" M 190.7228445957244 176.5743608097981 L 233.51802464427246 176.5743608097981 L 254.91561466854648 139.5126477282265 L 233.51802464427246 102.4509346466549 L 190.7228445957244 102.4509346466549 L 169.32525457145036 139.5126477282265 L 190.7228445957244 176.5743608097981" fill-opacity="0.4"/>
      </g>
    </g>
    <g id="labels-73ad9014"/>
  </g>
</svg>